<?xml version="1.0" standalone="no"?>
<!DOCTYPE svg PUBLIC "-//W3C//DTD SVG 20010904//EN"
 "http://www.w3.org/TR/2001/REC-SVG-20010904/DTD/svg10.dtd">
<svg version="1.0" xmlns="http://www.w3.org/2000/svg"
 width="330.000000pt" height="150.000000pt" viewBox="0 0 330.000000 150.000000"
 preserveAspectRatio="xMidYMid meet">

<g transform="translate(0.000000,150.000000) scale(0.100000,-0.100000)"
fill="white" stroke="none">
<path d="M412 1228 c-17 -17 -17 -469 0 -486 8 -8 52 -12 133 -12 l121 0 22
-53 c12 -28 31 -58 43 -65 24 -15 38 -8 24 12 -37 50 -46 68 -60 121 -12 47
-25 70 -65 110 -51 51 -63 88 -34 99 9 3 18 6 21 6 3 0 38 -32 78 -71 47 -45
75 -66 80 -59 4 7 2 17 -4 23 -6 6 -11 45 -11 92 l1 80 39 -44 c22 -24 44 -60
50 -80 14 -52 12 -144 -5 -234 -8 -43 -15 -99 -15 -123 l0 -44 -105 0 c-102 0
-105 1 -105 23 0 12 -14 49 -30 81 -17 32 -30 67 -30 77 0 11 -6 19 -14 19
-18 0 -3 -71 25 -116 23 -38 25 -84 4 -84 -12 0 -15 -16 -15 -85 0 -69 3 -85
15 -85 12 0 15 14 15 70 l0 70 135 0 135 0 0 -70 c0 -56 3 -70 15 -70 22 0 22
158 0 166 -20 8 -20 95 0 184 19 85 19 177 0 231 -9 24 -38 69 -65 100 -50 57
-50 58 -50 127 0 109 12 102 -174 102 -113 0 -166 -4 -174 -12z m78 -243 l0
-225 -30 0 -30 0 0 225 0 225 30 0 30 0 0 -225z m240 69 l0 -157 -45 42 c-48
45 -91 54 -119 25 -30 -29 -19 -62 39 -123 30 -32 55 -63 55 -69 0 -8 -24 -12
-70 -12 l-70 0 0 225 0 225 105 0 105 0 0 -156z"/>
<path d="M550 1095 c0 -50 4 -85 10 -85 6 0 10 35 10 85 0 50 -4 85 -10 85 -6
0 -10 -35 -10 -85z"/>
<path d="M600 1155 c0 -16 6 -25 15 -25 9 0 15 9 15 25 0 16 -6 25 -15 25 -9
0 -15 -9 -15 -25z"/>
<path d="M600 1085 c0 -8 7 -15 15 -15 8 0 15 7 15 15 0 8 -7 15 -15 15 -8 0
-15 -7 -15 -15z"/>
<path d="M276 1158 c-24 -34 -24 -712 0 -746 14 -21 22 -22 135 -22 73 0 119
4 119 10 0 6 -43 10 -108 10 -103 0 -132 7 -132 33 0 4 54 7 120 5 91 -2 120
0 120 10 0 9 -31 12 -120 12 l-120 0 0 339 c0 369 -3 351 56 351 13 0 24 5 24
10 0 6 -18 10 -39 10 -30 0 -44 -6 -55 -22z"/>
<path d="M790 1170 c0 -6 43 -10 108 -10 103 0 132 -7 132 -33 0 -4 -54 -7
-120 -5 -91 2 -120 0 -120 -9 0 -10 31 -13 120 -13 l120 0 0 -333 c0 -246 -3
-336 -12 -345 -7 -7 -31 -12 -55 -12 -24 0 -43 -4 -43 -10 0 -15 94 -12 116 4
18 14 19 30 19 381 0 351 -1 367 -19 381 -24 17 -246 21 -246 4z"/>
<path d="M1370 1035 c0 -113 2 -135 15 -135 13 0 15 22 15 135 0 113 -2 135
-15 135 -13 0 -15 -22 -15 -135z"/>
<path d="M1717 1115 c-23 -29 -25 -36 -13 -41 12 -5 16 -21 16 -66 0 -33 4
-68 10 -78 12 -22 57 -34 94 -24 39 9 26 29 -17 26 -46 -4 -59 18 -55 96 l3
57 38 -3 c28 -3 37 0 37 12 0 12 -10 16 -39 16 -32 0 -40 4 -43 20 -3 18 -6
16 -31 -15z"/>
<path d="M2837 1118 c-25 -28 -27 -33 -13 -44 12 -8 16 -29 16 -77 0 -60 3
-68 25 -83 30 -20 95 -12 95 12 0 10 -7 13 -24 8 -14 -3 -34 -3 -45 1 -19 6
-21 14 -21 80 l0 73 40 -5 c33 -5 40 -3 40 11 0 12 -10 16 -39 16 -32 0 -40 4
-43 20 -3 19 -6 18 -31 -12z"/>
<path d="M1470 1005 c0 -87 3 -105 15 -105 12 0 15 15 15 74 0 66 3 77 22 90
32 23 85 21 98 -3 5 -11 10 -51 10 -90 0 -56 3 -71 15 -71 12 0 15 15 15 73 0
39 -6 83 -13 97 -17 35 -74 48 -115 28 -26 -13 -32 -14 -36 -2 -3 8 -10 14
-16 14 -6 0 -10 -40 -10 -105z"/>
<path d="M1932 1095 c-21 -9 -38 -27 -48 -51 -37 -88 36 -159 141 -140 57 11
45 34 -15 28 -53 -5 -100 15 -100 43 0 12 16 15 80 15 l80 0 0 34 c0 68 -68
103 -138 71z m96 -27 c7 -7 12 -20 12 -30 0 -15 -9 -18 -65 -18 -69 0 -79 8
-48 42 19 21 82 25 101 6z"/>
<path d="M2130 1005 c0 -87 3 -105 15 -105 12 0 15 15 15 73 0 92 17 113 79
103 47 -7 61 6 25 23 -33 15 -56 14 -80 -4 -25 -19 -34 -19 -34 0 0 8 -4 15
-10 15 -6 0 -10 -42 -10 -105z"/>
<path d="M2330 1005 c0 -87 3 -105 15 -105 12 0 15 15 15 74 0 66 3 77 22 90
32 23 85 21 98 -3 5 -11 10 -51 10 -90 0 -56 3 -71 15 -71 12 0 15 15 15 73 0
39 -6 83 -13 97 -17 35 -74 48 -115 28 -26 -13 -32 -14 -36 -2 -3 8 -10 14
-16 14 -6 0 -10 -40 -10 -105z"/>
<path d="M2634 1100 c-32 -13 -64 -59 -64 -92 0 -75 59 -116 146 -103 64 9 52
30 -15 26 -44 -2 -57 1 -77 20 -13 12 -24 26 -24 31 0 4 38 8 85 8 l85 0 0 29
c0 43 -9 60 -41 76 -31 17 -63 18 -95 5z m90 -36 c34 -33 20 -44 -54 -44 -74
0 -83 7 -50 40 24 24 82 27 104 4z"/>
<path d="M2120 620 c0 -124 2 -150 14 -150 11 0 16 14 18 47 4 67 26 67 73 3
22 -31 44 -50 56 -50 17 0 13 10 -27 62 l-48 61 45 39 c63 55 20 52 -46 -3
l-50 -41 -3 91 c-2 72 -6 91 -17 91 -13 0 -15 -25 -15 -150z"/>
<path d="M2342 738 c2 -13 10 -23 18 -23 8 0 16 10 18 23 3 17 -2 22 -18 22
-16 0 -21 -5 -18 -22z"/>
<path d="M1370 606 l0 -136 59 0 c124 0 176 53 120 124 -16 20 -19 30 -10 39
18 18 13 62 -10 83 -15 13 -40 20 -90 22 l-69 4 0 -136z m144 82 c19 -31 -4
-53 -63 -56 l-51 -3 0 41 0 41 51 -3 c36 -2 55 -8 63 -20z m8 -105 c45 -40 10
-83 -68 -83 l-54 0 0 50 0 50 52 0 c34 0 58 -6 70 -17z"/>
<path d="M1653 673 c-13 -2 -23 -10 -23 -17 0 -9 18 -13 63 -12 56 1 62 -1 65
-21 3 -19 -3 -22 -54 -29 -58 -7 -94 -30 -94 -60 0 -52 64 -79 121 -50 29 15
34 15 41 1 5 -8 15 -15 23 -15 22 0 30 22 11 32 -12 7 -16 24 -16 77 0 49 -4
72 -15 81 -16 14 -86 21 -122 13z m107 -128 c0 -28 -25 -45 -68 -45 -34 0 -55
20 -46 43 7 18 24 24 77 26 33 1 37 -2 37 -24z"/>
<path d="M1860 575 c0 -87 3 -105 15 -105 12 0 15 14 15 70 0 58 3 72 22 90
24 22 77 27 96 8 7 -7 12 -43 12 -90 0 -63 3 -78 15 -78 12 0 15 16 15 84 0
79 -2 86 -26 105 -32 25 -59 26 -98 6 -35 -18 -36 -18 -36 0 0 8 -7 15 -15 15
-12 0 -15 -18 -15 -105z"/>
<path d="M2340 575 c0 -87 3 -105 15 -105 12 0 15 18 15 105 0 87 -3 105 -15
105 -12 0 -15 -18 -15 -105z"/>
<path d="M2440 575 c0 -87 3 -105 15 -105 12 0 15 15 15 74 0 66 3 77 22 90
27 19 69 21 86 4 7 -7 12 -43 12 -90 0 -63 3 -78 15 -78 12 0 15 16 15 84 0
79 -2 86 -26 105 -32 25 -59 26 -98 6 -35 -18 -36 -18 -36 0 0 8 -4 15 -10 15
-6 0 -10 -42 -10 -105z"/>
<path d="M2735 670 c-34 -13 -48 -37 -43 -72 3 -18 1 -43 -5 -56 -8 -17 -8
-29 1 -42 7 -12 8 -21 2 -25 -16 -10 -11 -71 7 -86 10 -9 39 -14 74 -14 47 1
63 5 84 25 26 24 32 54 16 79 -6 10 -35 17 -83 20 -67 6 -73 8 -76 30 -4 22
-1 23 33 17 75 -14 128 25 112 84 -4 15 0 20 14 20 10 0 19 7 19 15 0 12 -14
15 -67 14 -38 0 -77 -4 -88 -9z m89 -36 c9 -8 16 -19 16 -24 0 -30 -62 -50
-104 -34 -19 7 -21 45 -4 62 17 17 74 15 92 -4z m26 -189 c0 -29 -26 -45 -75
-45 -45 0 -75 15 -75 39 0 28 9 31 82 31 66 0 68 -1 68 -25z"/>
<path d="M620 430 c0 -5 5 -10 10 -10 6 0 10 5 10 10 0 6 -4 10 -10 10 -5 0
-10 -4 -10 -10z"/>
<path d="M620 375 c0 -8 5 -15 10 -15 6 0 10 7 10 15 0 8 -4 15 -10 15 -5 0
-10 -7 -10 -15z"/>
</g>
</svg>
